{
  "header": {
    "PPQ": 96,
    "timeSignature": [
      4,
      4
    ],
    "bpm": 120,
    "name": ""
  },
  "tempo": [],
  "timeSignature": [
    {
      "absoluteTime": 0,
      "seconds": 0,
      "numerator": 4,
      "denominator": 2,
      "click": 36,
      "notesQ": 8
    },
    {
      "absoluteTime": 0,
      "seconds": 0,
      "numerator": 4,
      "denominator": 2,
      "click": 36,
      "notesQ": 8
    }
  ],
  "startTime": 0,
  "duration": 4,
  "tracks": [
    {
      "startTime": 0,
      "duration": 4,
      "length": 30,
      "notes": [
        {
          "name": "C2",
          "midi": 36,
          "time": 0,
          "velocity": 0.7874015748031497,
          "duration": 0.234375
        },
        {
          "name": "C#2",
          "midi": 37,
          "time": 0.234375,
          "velocity": 0.7874015748031497,
          "duration": 0.140625
        },
        {
          "name": "D2",
          "midi": 38,
          "time": 0.375,
          "velocity": 0.7874015748031497,
          "duration": 0.109375
        },
        {
          "name": "D#2",
          "midi": 39,
          "time": 0.484375,
          "velocity": 0.7874015748031497,
          "duration": 0.14583333333333337
        },
        {
          "name": "E2",
          "midi": 40,
          "time": 0.6302083333333334,
          "velocity": 0.7874015748031497,
          "duration": 0.11458333333333337
        },
        {
          "name": "F2",
          "midi": 41,
          "time": 0.7447916666666667,
          "velocity": 0.7874015748031497,
          "duration": 0.13020833333333337
        },
        {
          "name": "F#2",
          "midi": 42,
          "time": 0.8750000000000001,
          "velocity": 0.7874015748031497,
          "duration": 0.11458333333333337
        },
        {
          "name": "G2",
          "midi": 43,
          "time": 0.9895833333333335,
          "velocity": 0.7874015748031497,
          "duration": 0.13541666666666674
        },
        {
          "name": "G#2",
          "midi": 44,
          "time": 1.1250000000000002,
          "velocity": 0.7874015748031497,
          "duration": 0.11458333333333326
        },
        {
          "name": "A2",
          "midi": 45,
          "time": 1.2395833333333335,
          "velocity": 0.7874015748031497,
          "duration": 0.140625
        },
        {
          "name": "A#2",
          "midi": 46,
          "time": 1.3802083333333335,
          "velocity": 0.7874015748031497,
          "duration": 0.109375
        },
        {
          "name": "B2",
          "midi": 47,
          "time": 1.4895833333333335,
          "velocity": 0.7874015748031497,
          "duration": 0.140625
        },
        {
          "name": "C3",
          "midi": 48,
          "time": 1.6302083333333335,
          "velocity": 0.7874015748031497,
          "duration": 0.11458333333333326
        },
        {
          "name": "C#3",
          "midi": 49,
          "time": 1.7447916666666667,
          "velocity": 0.7874015748031497,
          "duration": 0.13020833333333326
        },
        {
          "name": "D3",
          "midi": 50,
          "time": 1.875,
          "velocity": 0.7874015748031497,
          "duration": 0.125
        },
        {
          "name": "D#3",
          "midi": 51,
          "time": 2,
          "velocity": 0.7874015748031497,
          "duration": 0.22395833333333348
        },
        {
          "name": "E3",
          "midi": 52,
          "time": 2.2239583333333335,
          "velocity": 0.7874015748031497,
          "duration": 0.140625
        },
        {
          "name": "F3",
          "midi": 53,
          "time": 2.3645833333333335,
          "velocity": 0.7874015748031497,
          "duration": 0.11979166666666652
        },
        {
          "name": "F#3",
          "midi": 54,
          "time": 2.484375,
          "velocity": 0.7874015748031497,
          "duration": 0.13020833333333348
        },
        {
          "name": "G3",
          "midi": 55,
          "time": 2.6145833333333335,
          "velocity": 0.7874015748031497,
          "duration": 0.11979166666666652
        },
        {
          "name": "G#3",
          "midi": 56,
          "time": 2.734375,
          "velocity": 0.7874015748031497,
          "duration": 0.140625
        },
        {
          "name": "A3",
          "midi": 57,
          "time": 2.875,
          "velocity": 0.7874015748031497,
          "duration": 0.11458333333333348
        },
        {
          "name": "A#3",
          "midi": 58,
          "time": 2.9895833333333335,
          "velocity": 0.7874015748031497,
          "duration": 0.13020833333333348
        },
        {
          "name": "B3",
          "midi": 59,
          "time": 3.119791666666667,
          "velocity": 0.7874015748031497,
          "duration": 0.11979166666666652
        },
        {
          "name": "C4",
          "midi": 60,
          "time": 3.2395833333333335,
          "velocity": 0.7874015748031497,
          "duration": 0.140625
        },
        {
          "name": "C#4",
          "midi": 61,
          "time": 3.3802083333333335,
          "velocity": 0.7874015748031497,
          "duration": 0.109375
        },
        {
          "name": "D4",
          "midi": 62,
          "time": 3.4895833333333335,
          "velocity": 0.7874015748031497,
          "duration": 0.140625
        },
        {
          "name": "D#4",
          "midi": 63,
          "time": 3.6302083333333335,
          "velocity": 0.7874015748031497,
          "duration": 0.11458333333333348
        },
        {
          "name": "E4",
          "midi": 64,
          "time": 3.744791666666667,
          "velocity": 0.7874015748031497,
          "duration": 0.13541666666666652
        },
        {
          "name": "F4",
          "midi": 65,
          "time": 3.8802083333333335,
          "velocity": 0.7874015748031497,
          "duration": 0.11979166666666652
        }
      ],
      "controlChanges": {},
      "id": 0,
      "name": "tabla",
      "channelNumber": 0,
      "isPercussion": false
    }
  ]
}